<svg viewBox="0 0 100 100" fill="none" xmlns="http://www.w3.org/2000/svg">
  <defs>
    <linearGradient id="grad1" x1="0%" y1="0%" x2="100%" y2="100%">
      <stop offset="0%" stop-color="#6366f1" />
      <stop offset="100%" stop-color="#8b5cf6" />
    </linearGradient>
    <linearGradient id="grad2" x1="0%" y1="0%" x2="100%" y2="100%">
      <stop offset="0%" stop-color="#3b82f6" />
      <stop offset="100%" stop-color="#06b6d4" />
    </linearGradient>
    <linearGradient id="grad3" x1="0%" y1="0%" x2="100%" y2="100%">
      <stop offset="0%" stop-color="#10b981" />
      <stop offset="100%" stop-color="#34d399" />
    </linearGradient>
    <linearGradient id="grad4" x1="0%" y1="0%" x2="100%" y2="100%">
      <stop offset="0%" stop-color="#f59e0b" />
      <stop offset="100%" stop-color="#f97316" />
    </linearGradient>
  </defs>
  
  <path
    d="M10 20 H55 L45 40 H20 C15 40 10 35 10 30 V20 Z"
    fill="url(#grad1)"
  />
  
  <path
    d="M60 20 H90 C95 20 98 25 95 30 L75 60 L55 20 Z"
    fill="url(#grad2)"
  />
  
  <path
    d="M45 40 L65 80 L25 80 C20 80 18 75 20 70 L45 40 Z"
    fill="url(#grad3)"
  />
  
  <path
    d="M50 60 H85 C90 60 95 65 95 70 V80 H70 L50 60 Z"
    fill="url(#grad4)"
  />
</svg>